#!OML:ASF H:\ManfredETheater\Project 1\Capture day 1\Session 1\subject.ASF
:FULLY-SPECIFIED
:DEGREES
286
root 0.363209 16.8899 -29.4171 -162.239 4.36967 -184.064
lowerback 7.74446 1.60707 -1.88244
upperback -3.06807 2.00066 0.439426
thorax -7.66143 1.09245 1.23292
lowerneck -17.2335 -0.942897 -1.63399
upperneck 14.264 -0.456719 -2.96971
head 7.20804 -0.635955 -0.76197
rclavicle -7.55382e-015 -1.35174e-014
rhumerus -44.0218 5.69526 -90.9901
rradius 60.7923
rwrist -0.687548
rhand -24.5216 -5.73814
rfingers 7.12502
rthumb 1.97365 -35.7088
lclavicle -7.55382e-015 -1.35174e-014
lhumerus -49.1889 1.036 89.2988
lradius 60.104
lwrist -0.721085
lhand -18.0653 -0.089942
lfingers 7.12502
lthumb 8.20731 29.7307
rfemur -14.2742 -7.81146 14.2975
rtibia 47.6741
rfoot -13.9256 -31.704
rtoes -36.7831
lfemur -29.1223 -14.7698 -24.0593
ltibia 51.0956
lfoot -34.6677 -1.30471
ltoes 11.0654
287
root 0.343719 16.8713 -29.5658 -161.951 4.27526 -184.325
lowerback 7.88975 1.57454 -2.06937
upperback -3.0711 1.92521 0.341372
thorax -7.7493 1.06188 1.24185
lowerneck -17.2989 -0.986333 -1.72157
upperneck 13.932 -0.510818 -2.84912
head 7.11055 -0.646142 -0.711726
rclavicle 3.57812e-015 1.43125e-014
rhumerus -44.2462 5.06246 -90.5965
rradius 60.2197
rwrist -0.875686
rhand -24.578 -5.87935
rfingers 7.12502
rthumb 1.91915 -35.8505
lclavicle 3.57812e-015 1.43125e-014
lhumerus -49.27 1.15606 89.4686
lradius 60.6274
lwrist -0.336829
lhand -18.4329 -0.0186644
lfingers 7.12502
lthumb 7.8525 29.8155
rfemur -15.8585 -8.07227 13.9069
rtibia 50.6383
rfoot -11.9989 -31.1553
rtoes -35.3895
lfemur -28.649 -14.9975 -24.4827
ltibia 50.6725
lfoot -34.8849 -1.26119
ltoes 11.2666
288
root 0.326252 16.8525 -29.7162 -161.676 4.19814 -184.61
lowerback 8.04937 1.53224 -2.30704
upperback -3.06121 1.8299 0.243655
thorax -7.83251 1.0241 1.28265
lowerneck -17.357 -1.01525 -1.78651
upperneck 13.575 -0.549192 -2.74465
head 7.00396 -0.649113 -0.668671
rclavicle 7.95139e-016 1.27222e-014
rhumerus -44.4737 4.40692 -90.1727
rradius 59.6077
rwrist -1.08771
rhand -24.6195 -6.12172
rfingers 7.12502
rthumb 1.87902 -36.0932
lclavicle 7.95139e-016 1.27222e-014
lhumerus -49.3186 1.25633 89.6537
lradius 61.1524
lwrist 0.0264282
lhand -18.836 0.0877996
lfingers 7.12502
lthumb 7.46343 29.9361
rfemur -17.5428 -8.31172 13.497
rtibia 53.6575
rfoot -10.0212 -30.4126
rtoes -33.5005
lfemur -28.1376 -15.1953 -24.9311
ltibia 50.2096
lfoot -35.0842 -1.25181
ltoes 11.4585
289
root 0.31108 16.8328 -29.8684 -161.417 4.13299 -184.927
lowerback 8.22576 1.47936 -2.5994
upperback -3.04093 1.71273 0.143244
thorax -7.91477 0.97845 1.35474
lowerneck -17.408 -1.03153 -1.83275
upperneck 13.2016 -0.574866 -2.64797
head 6.89103 -0.645964 -0.629847
rclavicle -8.94531e-015 7.95139e-016
rhumerus -44.7162 3.73911 -89.731
rradius 58.9715
rwrist -1.35684
rhand -24.698 -6.44746
rfingers 7.12502
rthumb 1.80326 -36.4196
lclavicle -8.94531e-015 7.95139e-016
lhumerus -49.3423 1.31305 89.8602
lradius 61.6917
lwrist 0.359407
lhand -19.2857 0.21483
lfingers 7.12502
lthumb 7.02941 30.0781
rfemur -19.3067 -8.55839 13.0682
rtibia 56.691
rfoot -8.17031 -29.4796
rtoes -31.1368
lfemur -27.5892 -15.3671 -25.4093
ltibia 49.7105
lfoot -35.2661 -1.28445
ltoes 11.6466
290
root 0.298472 16.812 -30.0225 -161.174 4.07286 -185.28
lowerback 8.42365 1.41422 -2.94998
upperback -3.01214 1.57056 0.0384779
thorax -8.00026 0.923746 1.4589
lowerneck -17.4517 -1.03377 -1.85417
upperneck 12.8135 -0.586608 -2.56566
head 6.77233 -0.636545 -0.598283
rclavicle -9.14409e-015 -2.3059e-014
rhumerus -44.9807 3.06136 -89.2736
rradius 58.329
rwrist -1.66811
rhand -24.8091 -6.83529
rfingers 7.12502
rthumb 1.69596 -36.8083
lclavicle -9.14409e-015 -2.3059e-014
lhumerus -49.3462 1.30928 90.0913
lradius 62.2646
lwrist 0.656189
lhand -19.7763 0.354252
lfingers 7.12502
lthumb 6.55575 30.2328
rfemur -21.1307 -8.83543 12.6247
rtibia 59.6996
rfoot -6.64662 -28.3594
rtoes -28.677
lfemur -27.0055 -15.5159 -25.9204
ltibia 49.1796
lfoot -35.4274 -1.36901
ltoes 11.8549
291
root 0.287743 16.7896 -30.178 -160.944 3.99184 -185.677
lowerback 8.64879 1.32917 -3.33972
upperback -2.97805 1.39461 -0.0736303
thorax -8.09398 0.854964 1.58278
lowerneck -17.4954 -1.02532 -1.86639
upperneck 12.4211 -0.587603 -2.47916
head 6.65251 -0.621676 -0.565896
rclavicle -7.55382e-015 2.06736e-014
rhumerus -45.2731 2.38195 -88.8041
rradius 57.6844
rwrist -2.02639
rhand -24.9712 -7.22592
rfingers 7.12502
rthumb 1.53939 -37.2001
lclavicle -7.55382e-015 2.06736e-014
lhumerus -49.3329 1.23085 90.3492
lradius 62.8855
lwrist 0.919649
lhand -20.295 0.481211
lfingers 7.12502
lthumb 6.055 30.3747
rfemur -22.9978 -9.18914 12.1707
rtibia 62.6497
rfoot -5.59072 -27.0896
rtoes -26.4798
lfemur -26.394 -15.6619 -26.4658
ltibia 48.6248
lfoot -35.5693 -1.50827
ltoes 12.0773
292
root 0.278677 16.7656 -30.3353 -160.727 3.87953 -186.102
lowerback 8.90057 1.22213 -3.74426
upperback -2.93744 1.1848 -0.189979
thorax -8.19292 0.771034 1.71642
lowerneck -17.5397 -1.00727 -1.86629
upperneck 12.0248 -0.579482 -2.39297
head 6.53173 -0.602488 -0.534857
rclavicle 4.57205e-015 2.3059e-014
rhumerus -45.5949 1.70398 -88.3263
rradius 57.0408
rwrist -2.43148
rhand -25.1914 -7.57541
rfingers 7.12502
rthumb 1.32675 -37.551
lclavicle 4.57205e-015 2.3059e-014
lhumerus -49.2992 1.06728 90.6333
lradius 63.5651
lwrist 1.16381
lhand -20.8323 0.591742
lfingers 7.12502
lthumb 5.53626 30.4994
rfemur -24.8931 -9.63094 11.7308
rtibia 65.5107
rfoot -5.07361 -25.7196
rtoes -24.8589
lfemur -25.7562 -15.8119 -27.0281
ltibia 48.0562
lfoot -35.694 -1.69911
ltoes 12.3221
